<svg width="28" height="29" viewBox="0 0 28 29" fill="none" xmlns="http://www.w3.org/2000/svg">
<path d="M13.6748 9.94242C11.1661 9.94242 9.11869 11.9898 9.11869 14.4986C9.11869 17.0074 11.1661 19.0547 13.6748 19.0547C16.1836 19.0547 18.231 17.0074 18.231 14.4986C18.231 11.9898 16.1836 9.94242 13.6748 9.94242ZM27.3399 14.4986C27.3399 12.6119 27.357 10.7422 27.251 8.85893C27.1451 6.67143 26.646 4.73002 25.0464 3.13041C23.4434 1.52738 21.5054 1.03178 19.3179 0.925821C17.4312 0.819864 15.5616 0.836954 13.6783 0.836954C11.7915 0.836954 9.92192 0.819864 8.03861 0.925821C5.85111 1.03178 3.90971 1.5308 2.3101 3.13041C0.707071 4.73344 0.211466 6.67143 0.105509 8.85893C-0.000448238 10.7456 0.0166417 12.6153 0.0166417 14.4986C0.0166417 16.3819 -0.000448238 18.2549 0.105509 20.1382C0.211466 22.3257 0.710489 24.2671 2.3101 25.8667C3.91313 27.4698 5.85111 27.9654 8.03861 28.0713C9.92533 28.1773 11.795 28.1602 13.6783 28.1602C15.565 28.1602 17.4346 28.1773 19.3179 28.0713C21.5054 27.9654 23.4468 27.4663 25.0464 25.8667C26.6495 24.2637 27.1451 22.3257 27.251 20.1382C27.3604 18.2549 27.3399 16.3853 27.3399 14.4986ZM13.6748 21.5088C9.79545 21.5088 6.66459 18.378 6.66459 14.4986C6.66459 10.6192 9.79545 7.48832 13.6748 7.48832C17.5542 7.48832 20.6851 10.6192 20.6851 14.4986C20.6851 18.378 17.5542 21.5088 13.6748 21.5088ZM20.9722 8.83842C20.0664 8.83842 19.335 8.10697 19.335 7.20121C19.335 6.29545 20.0664 5.564 20.9722 5.564C21.878 5.564 22.6094 6.29545 22.6094 7.20121C22.6097 7.41629 22.5675 7.62931 22.4853 7.82806C22.4032 8.02682 22.2826 8.20741 22.1305 8.35949C21.9784 8.51158 21.7978 8.63216 21.5991 8.71434C21.4003 8.79653 21.1873 8.83869 20.9722 8.83842Z" fill="white"/>
</svg>
