<svg width="117" height="34" viewBox="0 0 117 34" fill="none" xmlns="http://www.w3.org/2000/svg">
<path d="M62.2971 2.68163C62.2971 3.40188 62.5492 4.02129 63.0534 4.53986C63.5575 5.05844 64.1698 5.31773 64.89 5.31773C65.6102 5.31773 66.2225 5.05844 66.7266 4.53986C67.2308 4.02129 67.4829 3.40188 67.4829 2.68163C67.4829 1.94698 67.2308 1.32037 66.7266 0.801791C66.2225 0.283214 65.6102 0.0239258 64.89 0.0239258C64.1698 0.0239258 63.5575 0.283214 63.0534 0.801791C62.5492 1.32037 62.2971 1.94698 62.2971 2.68163Z" fill="#035156"/>
<path d="M63.069 33.2158C62.8813 33.2158 62.7291 33.0636 62.7291 32.8759V8.05905C62.7291 7.87131 62.8813 7.71912 63.069 7.71912H66.7107C66.8984 7.71912 67.0506 7.87131 67.0506 8.05905V32.8759C67.0506 33.0636 66.8984 33.2158 66.7107 33.2158H63.069Z" fill="#035156"/>
<path d="M41.4125 33.2158C41.2248 33.2158 41.0726 33.0636 41.0726 32.8759V16.7942C41.0726 14.4174 41.9657 12.3503 43.7519 10.5929C45.4229 8.96515 47.5188 8.15127 50.0397 8.15127C52.5317 8.15127 54.6276 8.96515 56.3274 10.5929C58.1136 12.3215 59.0067 14.3886 59.0067 16.7942V32.8759C59.0067 33.0636 58.8545 33.2158 58.6668 33.2158H55.0252C54.8374 33.2158 54.6852 33.0636 54.6852 32.8759V16.7942C54.6852 15.1376 54.2315 13.9276 53.324 13.1642C52.4309 12.3863 51.3361 11.9974 50.0397 11.9974C48.7432 11.9974 47.6412 12.3863 46.7337 13.1642C45.8406 13.9276 45.3941 15.1376 45.3941 16.7942V32.8759C45.3941 33.0636 45.2419 33.2158 45.0541 33.2158H41.4125Z" fill="#035156"/>
<path d="M70.773 32.8759C70.773 33.0636 70.9252 33.2158 71.1129 33.2158H74.7545C74.9423 33.2158 75.0944 33.0616 75.0944 32.8738V16.7942C75.0944 15.1376 75.541 13.9276 76.4341 13.1642C77.3416 12.3863 78.4436 11.9974 79.74 11.9974H80.4393C80.6762 11.9974 80.8405 11.761 80.7579 11.5389L79.58 8.37268C79.5305 8.23957 79.4034 8.15076 79.2614 8.15369C76.8602 8.20335 75.0706 9.01642 73.4523 10.5929C71.6661 12.3503 70.773 14.4174 70.773 16.7942V32.8759Z" fill="#035156"/>
<path d="M89.7582 33.2158C89.6101 33.2158 89.4791 33.1199 89.4342 32.9787L81.6936 8.58962C81.624 8.37044 81.7877 8.14686 82.0176 8.14686H86.018C86.1702 8.14686 86.3038 8.24803 86.3451 8.3945L91.2381 25.7397L96.0026 8.39674C96.0432 8.24915 96.1774 8.14686 96.3304 8.14686H100.34C100.567 8.14686 100.73 8.36458 100.666 8.58219L93.5351 32.9713C93.4928 33.1162 93.3599 33.2158 93.2089 33.2158H89.7582Z" fill="#035156"/>
<path fill-rule="evenodd" clip-rule="evenodd" d="M116.66 33.2158C116.848 33.2158 117 33.0636 117 32.8759V16.7942C117 14.403 116.107 12.3359 114.321 10.5929C112.65 8.96515 110.554 8.15127 108.033 8.15127H103.032C102.884 8.15127 102.752 8.24783 102.708 8.38967L101.717 11.5559C101.648 11.7748 101.812 11.9974 102.041 11.9974H108.033C109.373 11.9974 110.475 12.3863 111.339 13.1642C112.232 13.9709 112.679 15.3091 112.679 17.8588C111.353 16.6343 109.805 16.0221 108.033 16.0221C105.541 16.0221 103.51 16.8 101.94 18.3557C100.312 19.9691 99.498 21.9282 99.498 24.2329C99.498 26.4513 100.247 28.3743 101.745 30.0021C103.243 31.6299 105.339 32.4437 108.033 32.4437C109.978 32.4437 111.526 31.8315 112.679 30.6071V32.8759C112.679 33.0636 112.831 33.2158 113.018 33.2158H116.66ZM104.9 27.4092C104.122 26.5737 103.733 25.515 103.733 24.2329C103.733 23.0517 104.129 22.0362 104.921 21.1863C105.714 20.3364 106.765 19.9115 108.076 19.9115C109.329 19.9115 110.403 20.3148 111.296 21.1215C112.189 21.9282 112.635 22.9797 112.635 24.2761C112.635 25.4285 112.203 26.4657 111.339 27.3876C110.561 28.2087 109.466 28.6192 108.055 28.6192C106.7 28.6192 105.649 28.2159 104.9 27.4092Z" fill="#035156"/>
<path d="M5.16371 24.6276C5.16371 23.5672 6.02336 22.7075 7.0838 22.7075L26.017 22.7075C27.0775 22.7075 27.9371 23.5672 27.9371 24.6276C27.9371 25.6881 27.0775 26.5477 26.017 26.5477H7.0838C6.02336 26.5477 5.16371 25.6881 5.16371 24.6276Z" fill="#035156"/>
<path d="M0 31.5138C0 30.4534 0.859653 29.5937 1.92009 29.5937H31.1806C32.241 29.5937 33.1006 30.4534 33.1006 31.5138C33.1006 32.5742 32.241 33.4339 31.1806 33.4339H1.92009C0.859653 33.4339 0 32.5742 0 31.5138Z" fill="#035156"/>
</svg>
